<svg width="32" height="32" viewBox="0 0 32 32" fill="none" xmlns="http://www.w3.org/2000/svg">
<rect width="32" height="32" fill="#FE6807"/>
<path d="M6.14258 24V9.99609H18.2324C23.0566 9.99609 25.6543 10.9531 25.6543 13.375C25.6543 15.2109 24.082 16.1973 22.3145 16.5586C24.7949 16.9395 26.3672 18.1797 26.3672 20.0254C26.3672 23.043 23.5156 24 17.4707 24H6.14258ZM13.7598 20.9141H16.3672C17.5879 20.9141 18.4082 20.582 18.4082 19.5957C18.4082 18.668 17.6172 18.3457 16.3965 18.3457H13.7598V20.9141ZM13.7598 15.3184H16.2402C17.2656 15.3184 17.9688 14.9863 17.9688 14.1562C17.9688 13.3359 17.2656 13.043 16.2891 13.043H13.7598V15.3184Z" fill="black"/>
</svg>
